<?xml version="1.0" standalone="no"?><!DOCTYPE svg PUBLIC "-//W3C//DTD SVG 1.1//EN" "http://www.w3.org/Graphics/SVG/1.1/DTD/svg11.dtd"><svg t="1744691824108" class="icon" viewBox="0 0 1024 1024" version="1.1" xmlns="http://www.w3.org/2000/svg" p-id="16581" xmlns:xlink="http://www.w3.org/1999/xlink" width="12" height="12"><path d="M539.136 128H453.632c-11.776 0-22.528 6.656-27.648 16.896l-373.76 739.84c-2.048 3.584-0.512 8.704 3.584 10.24 1.024 0.512 2.048 1.024 3.584 1.024h123.392c11.776 0 22.528-6.656 27.648-16.896l356.864-706.048c7.68-15.36 1.536-33.792-13.824-41.472-4.608-2.56-9.216-3.584-14.336-3.584z" fill="#00A450" p-id="16582"></path><path d="M442.88 452.096l123.904 245.248c7.68 15.36 1.536 33.792-13.824 41.472-4.096 2.048-9.216 3.584-13.824 3.584H453.632c-11.776 0-22.528-6.656-27.648-16.896L284.672 446.464c-2.048-3.584-0.512-8.704 3.584-10.24 1.024-1.024 2.56-1.024 3.584-1.024h123.392c11.776 0 22.528 6.656 27.648 16.896z" fill="#F4CC24" p-id="16583"></path><path d="M902.144 139.264l-295.936 586.24c-5.12 10.24-15.872 16.896-27.648 16.896H454.656c-4.096 0-7.68-3.584-7.68-7.68 0-1.024 0.512-2.56 1.024-3.584l295.936-586.24c5.12-10.24 15.872-16.896 27.648-16.896h123.392c4.096 0 7.68 3.584 7.68 7.68 0.512 1.024 0 2.56-0.512 3.584z" fill="#FF8F1E" p-id="16584"></path><path d="M446.976 128h123.392c11.776 0 22.528 6.656 27.648 16.896l373.76 739.84c2.048 3.584 0.512 8.704-3.584 10.24-1.024 0.512-2.048 1.024-3.584 1.024h-123.392c-11.776 0-22.528-6.656-27.648-16.896L440.32 139.264c-2.048-3.584-0.512-8.704 3.584-10.24 0.512-1.024 2.048-1.024 3.072-1.024z" fill="#A8D223" p-id="16585"></path></svg>