<?xml version="1.0" standalone="no"?><!DOCTYPE svg PUBLIC "-//W3C//DTD SVG 1.1//EN" "http://www.w3.org/Graphics/SVG/1.1/DTD/svg11.dtd"><svg t="1744691590804" class="icon" viewBox="0 0 1024 1024" version="1.1" xmlns="http://www.w3.org/2000/svg" p-id="2624" xmlns:xlink="http://www.w3.org/1999/xlink" width="12" height="12"><path d="M498.603 191.744a204.715 204.715 0 0 1 116.906 372.8c133.163 47.317 229.078 173.29 231.894 322.027l0.085 6.784h-64c0-157.334-127.573-284.886-284.885-284.886-155.136 0-281.302 123.968-284.822 278.251l-0.085 6.613h-64c0-151.68 96.81-280.746 232-328.81a204.715 204.715 0 0 1 116.907-372.8z m0 64a140.715 140.715 0 1 0 0 281.45 140.715 140.715 0 0 0 0-281.45z" fill="#1677FF" p-id="2625"></path></svg>